<svg xmlns="http://www.w3.org/2000/svg" xmlns:xlink="http://www.w3.org/1999/xlink" width="762" height="379" contentStyleType="text/css" preserveAspectRatio="none" style="width:762px;height:379px;background:#fff" version="1.1" viewBox="0 0 762 379" zoomAndPan="magnify"><g><g id="cluster_subql"><rect width="352" height="212" x="404.5" y="7" fill="none" rx="2.5" ry="2.5" style="stroke:#181818;stroke-width:1"/><rect width="15" height="10" x="736.5" fill="none" style="stroke:#181818;stroke-width:1" y="12"/><rect width="4" height="2" x="734.5" fill="none" style="stroke:#181818;stroke-width:1" y="14"/><rect width="4" height="2" x="734.5" fill="none" style="stroke:#181818;stroke-width:1" y="18"/><text x="526" y="34.966" fill="#000" font-family="sans-serif" font-size="14" font-weight="bold" lengthAdjust="spacing" textLength="109">SubQuery Node</text></g><g id="cluster_gql"><rect width="334" height="149.5" x="54.5" y="69.5" fill="none" rx="2.5" ry="2.5" style="stroke:#181818;stroke-width:1"/><rect width="15" height="10" x="368.5" fill="none" style="stroke:#181818;stroke-width:1" y="74.5"/><rect width="4" height="2" x="366.5" fill="none" style="stroke:#181818;stroke-width:1" y="76.5"/><rect width="4" height="2" x="366.5" fill="none" style="stroke:#181818;stroke-width:1" y="80.5"/><text x="180" y="97.466" fill="#000" font-family="sans-serif" font-size="14" font-weight="bold" lengthAdjust="spacing" textLength="83">Graphql API</text></g><g id="cluster_db"><rect width="132" height="104" x="334.5" y="269" fill="none" rx="2.5" ry="2.5" style="stroke:#181818;stroke-width:1"/><rect width="15" height="10" x="446.5" fill="none" style="stroke:#181818;stroke-width:1" y="274"/><rect width="4" height="2" x="444.5" fill="none" style="stroke:#181818;stroke-width:1" y="276"/><rect width="4" height="2" x="444.5" fill="none" style="stroke:#181818;stroke-width:1" y="280"/><text x="358.5" y="296.966" fill="#000" font-family="sans-serif" font-size="14" font-weight="bold" lengthAdjust="spacing" textLength="84">Postgres DB</text></g><g id="cluster_fetchd"><rect width="136" height="104" x="608.5" y="269" fill="none" rx="2.5" ry="2.5" style="stroke:#181818;stroke-width:1"/><rect width="15" height="10" x="724.5" fill="none" style="stroke:#181818;stroke-width:1" y="274"/><rect width="4" height="2" x="722.5" fill="none" style="stroke:#181818;stroke-width:1" y="276"/><rect width="4" height="2" x="722.5" fill="none" style="stroke:#181818;stroke-width:1" y="280"/><text x="632.5" y="296.966" fill="#000" font-family="sans-serif" font-size="14" font-weight="bold" lengthAdjust="spacing" textLength="88">Fetchd Node</text></g><g id="elem_subql_fetch"><rect width="127" height="49.068" x="613" y="45" fill="#F1F1F1" rx="2.5" ry="2.5" style="stroke:#181818;stroke-width:.5"/><rect width="15" height="10" x="720" fill="#F1F1F1" style="stroke:#181818;stroke-width:.5" y="50"/><rect width="4" height="2" x="718" fill="#F1F1F1" style="stroke:#181818;stroke-width:.5" y="52"/><rect width="4" height="2" x="718" fill="#F1F1F1" style="stroke:#181818;stroke-width:.5" y="56"/><text x="628" y="79.966" fill="#000" font-family="sans-serif" font-size="14" lengthAdjust="spacing" textLength="87">Fetch service</text></g><g id="elem_store"><rect width="126" height="49.068" x="428.5" y="154" fill="#F1F1F1" rx="2.5" ry="2.5" style="stroke:#181818;stroke-width:.5"/><rect width="15" height="10" x="534.5" fill="#F1F1F1" style="stroke:#181818;stroke-width:.5" y="159"/><rect width="4" height="2" x="532.5" fill="#F1F1F1" style="stroke:#181818;stroke-width:.5" y="161"/><rect width="4" height="2" x="532.5" fill="#F1F1F1" style="stroke:#181818;stroke-width:.5" y="165"/><text x="443.5" y="188.966" fill="#000" font-family="sans-serif" font-size="14" lengthAdjust="spacing" textLength="86">Store service</text></g><g id="elem_manager"><rect width="157" height="49.068" x="421" y="45" fill="#F1F1F1" rx="2.5" ry="2.5" style="stroke:#181818;stroke-width:.5"/><rect width="15" height="10" x="558" fill="#F1F1F1" style="stroke:#181818;stroke-width:.5" y="50"/><rect width="4" height="2" x="556" fill="#F1F1F1" style="stroke:#181818;stroke-width:.5" y="52"/><rect width="4" height="2" x="556" fill="#F1F1F1" style="stroke:#181818;stroke-width:.5" y="56"/><text x="436" y="79.966" fill="#000" font-family="sans-serif" font-size="14" lengthAdjust="spacing" textLength="117">Indexer manager</text></g><text x="6" y="47.398" fill="#000" font-family="sans-serif" font-size="14" lengthAdjust="spacing" textLength="133">public gql endpoint</text><rect width="12" height="12" x="66.5" fill="#F1F1F1" style="stroke:#181818;stroke-width:1.5" y="63.5"/><g id="elem_apollo"><rect width="128" height="49.068" x="83.5" y="154" fill="#F1F1F1" rx="2.5" ry="2.5" style="stroke:#181818;stroke-width:.5"/><rect width="15" height="10" x="191.5" fill="#F1F1F1" style="stroke:#181818;stroke-width:.5" y="159"/><rect width="4" height="2" x="189.5" fill="#F1F1F1" style="stroke:#181818;stroke-width:.5" y="161"/><rect width="4" height="2" x="189.5" fill="#F1F1F1" style="stroke:#181818;stroke-width:.5" y="165"/><text x="98.5" y="188.966" fill="#000" font-family="sans-serif" font-size="14" lengthAdjust="spacing" textLength="88">Apollo server</text></g><g id="elem_Postgraphile"><rect width="125" height="49.068" x="247" y="154" fill="#F1F1F1" rx="2.5" ry="2.5" style="stroke:#181818;stroke-width:.5"/><rect width="15" height="10" x="352" fill="#F1F1F1" style="stroke:#181818;stroke-width:.5" y="159"/><rect width="4" height="2" x="350" fill="#F1F1F1" style="stroke:#181818;stroke-width:.5" y="161"/><rect width="4" height="2" x="350" fill="#F1F1F1" style="stroke:#181818;stroke-width:.5" y="165"/><text x="262" y="188.966" fill="#000" font-family="sans-serif" font-size="14" lengthAdjust="spacing" textLength="85">Postgraphile</text></g><text x="325" y="246.898" fill="#000" font-family="sans-serif" font-size="14" lengthAdjust="spacing" textLength="135">private DB endpoint</text><rect width="12" height="12" x="394.5" fill="#F1F1F1" style="stroke:#181818;stroke-width:1.5" y="263"/><text x="610" y="246.898" fill="#000" font-family="sans-serif" font-size="14" lengthAdjust="spacing" textLength="133">public rpc endpoint</text><rect width="12" height="12" x="670.5" fill="#F1F1F1" style="stroke:#181818;stroke-width:1.5" y="263"/><g id="link_manager_store"><path id="manager-to-store" fill="none" d="M497.72,94.25 C496.55,109.9 495.01,130.54 493.75,147.35" style="stroke:#181818;stroke-width:1"/><polygon fill="#181818" points="493.38 152.31 498.038 143.632 493.752 147.324 490.06 143.038 493.38 152.31" style="stroke:#181818;stroke-width:1"/></g><g id="link_gql_port_apollo"><path id="gql_port-to-apollo" fill="none" d="M76.32,75.95 C85.57,89.15 109.71,123.59 127.32,148.71" style="stroke:#181818;stroke-width:1"/><polygon fill="#181818" points="130.1 152.68 128.198 143.017 127.225 148.589 121.652 147.617 130.1 152.68" style="stroke:#181818;stroke-width:1"/></g><g id="link_apollo_Postgraphile"><path id="apollo-to-Postgraphile" fill="none" d="M211.73,178.5 C221.34,178.5 230.95,178.5 240.55,178.5" style="stroke:#181818;stroke-width:1"/><polygon fill="#181818" points="245.35 178.5 236.35 174.5 240.35 178.5 236.35 182.5 245.35 178.5" style="stroke:#181818;stroke-width:1"/></g><g id="link_Postgraphile_db_port"><path id="Postgraphile-to-db_port" fill="none" d="M333.89,203.22 C352.45,221.27 377.05,245.19 390.56,258.33" style="stroke:#181818;stroke-width:1;stroke-dasharray:7,7"/><polygon fill="#181818" points="393.92 261.6 390.255 252.458 390.335 258.115 384.678 258.195 393.92 261.6" style="stroke:#181818;stroke-width:1"/></g><g id="link_store_db_port"><path id="store-to-db_port" fill="none" d="M467.11,203.22 C448.55,221.27 423.95,245.19 410.44,258.33" style="stroke:#181818;stroke-width:1;stroke-dasharray:7,7"/><polygon fill="#181818" points="407.08 261.6 416.322 258.195 410.665 258.115 410.745 252.458 407.08 261.6" style="stroke:#181818;stroke-width:1"/></g><g id="link_subql_fetch_rpc"><path id="subql_fetch-to-rpc" fill="none" d="M676.5,94.32 C676.5,136.87 676.5,224.45 676.5,256.19" style="stroke:#181818;stroke-width:1;stroke-dasharray:7,7"/><polygon fill="#181818" points="676.5 261.18 680.5 252.18 676.5 256.18 672.5 252.18 676.5 261.18" style="stroke:#181818;stroke-width:1"/></g></g></svg>