<svg xmlns="http://www.w3.org/2000/svg" xmlns:xlink="http://www.w3.org/1999/xlink" width="311" height="365" contentStyleType="text/css" preserveAspectRatio="none" style="width:311px;height:365px;background:#fff" version="1.1" viewBox="0 0 311 365" zoomAndPan="magnify"><g><g id="cluster_Legend"><path d="M8.5,6.602 L60.5,6.602 A3.75,3.75 0 0 1 63,9.102 L70,31.6699 L301.5,31.6699 A2.5,2.5 0 0 1 304,34.1699 L304,356.102 A2.5,2.5 0 0 1 301.5,358.602 L8.5,358.602 A2.5,2.5 0 0 1 6,356.102 L6,9.102 A2.5,2.5 0 0 1 8.5,6.602" style="stroke:#000;stroke-width:1.5;fill:none"/><line style="stroke:#000;stroke-width:1.5;fill:none" x1="6" x2="70" y1="31.67" y2="31.67"/><text x="10" y="23.568" fill="#000" font-family="sans-serif" font-size="14" font-weight="bold" lengthAdjust="spacing" textLength="51">Legend</text></g><g id="cluster_c1"><rect height="134.5" rx="2.5" ry="2.5" style="stroke:#181818;stroke-width:1;fill:none" width="211" x="69" y="200.102"/><rect height="10" style="stroke:#181818;stroke-width:1;fill:none" width="15" x="260" y="205.102"/><rect height="2" style="stroke:#181818;stroke-width:1;fill:none" width="4" x="258" y="207.102"/><rect height="2" style="stroke:#181818;stroke-width:1;fill:none" width="4" x="258" y="211.102"/><text x="82" y="228.068" fill="#000" font-family="sans-serif" font-size="14" font-weight="bold" lengthAdjust="spacing" textLength="185">UML component with port</text></g><g id="elem_c2"><rect width="150" height="49.068" x="62" y="44.602" fill="#F1F1F1" rx="2.5" ry="2.5" style="stroke:#181818;stroke-width:.5"/><rect width="15" height="10" x="192" fill="#F1F1F1" style="stroke:#181818;stroke-width:.5" y="49.602"/><rect width="4" height="2" x="190" fill="#F1F1F1" style="stroke:#181818;stroke-width:.5" y="51.602"/><rect width="4" height="2" x="190" fill="#F1F1F1" style="stroke:#181818;stroke-width:.5" y="55.602"/><text x="77" y="79.568" fill="#000" font-family="sans-serif" font-size="14" lengthAdjust="spacing" textLength="110">UML component</text></g><text x="87" y="178" fill="#000" font-family="sans-serif" font-size="14" lengthAdjust="spacing" textLength="28">port</text><rect width="12" height="12" x="81" fill="#181818" style="stroke:#f1f1f1;stroke-width:1.5" y="194.102"/><g id="link_c2_c1"><path id="c2-backto-c1" fill="none" d="M165.13,97.922 C171.2,105.622 176.76,114.402 180,123.602 C189.96,151.902 194.095,171.2345 193.6725,190.7007 C193.6197,193.134 193.4957,195.5694 193.3029,198.0246 C193.2547,198.6384 193.2022,199.2535 193.1455,199.8701" style="stroke:#181818;stroke-width:1"/><polygon fill="#181818" points="161.72 93.762 164.329 103.259 164.888 97.63 170.518 98.189 161.72 93.762" style="stroke:#181818;stroke-width:1"/><text x="194" y="187.499" fill="#000" font-family="sans-serif" font-size="13" lengthAdjust="spacing" textLength="93">Uses in-process</text></g><g id="link_c2_p1"><path id="c2-backto-p1" fill="none" d="M85.54,96.712 C76.06,104.082 67.45,113.022 62,123.602 C49.23,148.402 72.18,181.072 82.43,193.752" style="stroke:#181818;stroke-width:1;stroke-dasharray:7,7"/><polygon fill="#181818" points="89.65 93.642 80.041 95.804 85.638 96.626 84.816 102.223 89.65 93.642" style="stroke:#181818;stroke-width:1"/><text x="63" y="138.499" fill="#000" font-family="sans-serif" font-size="13" lengthAdjust="spacing" textLength="112">Uses over network</text></g></g></svg>