<svg xmlns="http://www.w3.org/2000/svg" xmlns:xlink="http://www.w3.org/1999/xlink" width="419" height="819" contentStyleType="text/css" preserveAspectRatio="none" style="width:419px;height:819px;background:#fff" version="1.1" viewBox="0 0 419 819" zoomAndPan="magnify"><g><g id="elem_Block"><rect id="Block" width="98" height="196.543" x="66.45" y="7" fill="#F1F1F1" codeLine="1" rx="2.5" ry="2.5" style="stroke:#181818;stroke-width:.5"/><ellipse cx="95.4" cy="23" fill="#ADD1B2" rx="11" ry="11" style="stroke:#181818;stroke-width:1"/><path fill="#000" d="M91.7594,29.5 L91.7594,17.3594 L99.4156,17.3594 L99.4156,19.4844 L94.1344,19.4844 L94.1344,22.1406 L99.15,22.1406 L99.15,24.2656 L94.1344,24.2656 L94.1344,27.375 L99.4156,27.375 L99.4156,29.5 L91.7594,29.5 Z"/><text x="112.5" y="28.432" fill="#000" font-family="sans-serif" font-size="14" lengthAdjust="spacing" textLength="35">Block</text><line style="stroke:#181818;stroke-width:.5" x1="67.45" x2="163.45" y1="39" y2="39"/><ellipse cx="77.45" cy="54.034" fill="none" rx="3" ry="3" style="stroke:#038048;stroke-width:1"/><text x="86.45" y="57.966" fill="#000" font-family="sans-serif" font-size="14" lengthAdjust="spacing" textLength="13">id</text><ellipse cx="77.45" cy="73.102" fill="none" rx="3" ry="3" style="stroke:#038048;stroke-width:1"/><text x="86.45" y="77.034" fill="#000" font-family="sans-serif" font-size="14" lengthAdjust="spacing" textLength="51">chainId</text><ellipse cx="77.45" cy="92.17" fill="none" rx="3" ry="3" style="stroke:#038048;stroke-width:1"/><text x="86.45" y="96.102" fill="#000" font-family="sans-serif" font-size="14" lengthAdjust="spacing" textLength="44">height</text><text x="86.45" y="115.17" fill="#000" font-family="sans-serif" font-size="14" lengthAdjust="spacing" textLength="72">timestamp</text><text x="72.45" y="157.305" fill="#000" font-family="sans-serif" font-size="14" lengthAdjust="spacing" textLength="83">transactions</text><text x="72.45" y="176.373" fill="#000" font-family="sans-serif" font-size="14" lengthAdjust="spacing" textLength="67">messages</text><text x="72.45" y="195.441" fill="#000" font-family="sans-serif" font-size="14" lengthAdjust="spacing" textLength="44">events</text><line style="stroke:#181818;stroke-width:1;stroke-dasharray:1,2" x1="67.45" x2="85.95" y1="132.806" y2="132.806"/><text x="85.95" y="137.738" fill="#000" font-family="sans-serif" font-size="14" lengthAdjust="spacing" textLength="59">relations</text><line style="stroke:#181818;stroke-width:1;stroke-dasharray:1,2" x1="144.95" x2="163.45" y1="132.806" y2="132.806"/></g><g id="elem_Transaction"><rect id="Transaction" width="124" height="291.883" x="53.45" y="264" fill="#F1F1F1" codeLine="12" rx="2.5" ry="2.5" style="stroke:#181818;stroke-width:.5"/><ellipse cx="74.3" cy="280" fill="#ADD1B2" rx="11" ry="11" style="stroke:#181818;stroke-width:1"/><path fill="#000" d="M70.6594,286.5 L70.6594,274.3594 L78.3156,274.3594 L78.3156,276.4844 L73.0344,276.4844 L73.0344,279.1406 L78.05,279.1406 L78.05,281.2656 L73.0344,281.2656 L73.0344,284.375 L78.3156,284.375 L78.3156,286.5 L70.6594,286.5 Z"/><text x="89.6" y="285.432" fill="#000" font-family="sans-serif" font-size="14" lengthAdjust="spacing" textLength="79">Transaction</text><line style="stroke:#181818;stroke-width:.5" x1="54.45" x2="176.45" y1="296" y2="296"/><ellipse cx="64.45" cy="311.034" fill="none" rx="3" ry="3" style="stroke:#038048;stroke-width:1"/><text x="73.45" y="314.966" fill="#000" font-family="sans-serif" font-size="14" lengthAdjust="spacing" textLength="13">id</text><text x="73.45" y="334.034" fill="#000" font-family="sans-serif" font-size="14" lengthAdjust="spacing" textLength="58">gasUsed</text><text x="73.45" y="353.102" fill="#000" font-family="sans-serif" font-size="14" lengthAdjust="spacing" textLength="76">gasWanted</text><text x="73.45" y="372.17" fill="#000" font-family="sans-serif" font-size="14" lengthAdjust="spacing" textLength="28">fees</text><text x="73.45" y="391.238" fill="#000" font-family="sans-serif" font-size="14" lengthAdjust="spacing" textLength="42">memo</text><text x="73.45" y="410.305" fill="#000" font-family="sans-serif" font-size="14" lengthAdjust="spacing" textLength="41">status</text><text x="73.45" y="429.373" fill="#000" font-family="sans-serif" font-size="14" lengthAdjust="spacing" textLength="21">log</text><ellipse cx="64.45" cy="444.509" fill="none" rx="3" ry="3" style="stroke:#038048;stroke-width:1"/><text x="73.45" y="448.441" fill="#000" font-family="sans-serif" font-size="14" lengthAdjust="spacing" textLength="97">timeoutHeight</text><ellipse cx="64.45" cy="463.577" fill="none" rx="3" ry="3" style="stroke:#038048;stroke-width:1"/><text x="73.45" y="467.509" fill="#000" font-family="sans-serif" font-size="14" lengthAdjust="spacing" textLength="98">signerAddress</text><text x="59.45" y="509.645" fill="#000" font-family="sans-serif" font-size="14" lengthAdjust="spacing" textLength="44">events</text><text x="59.45" y="528.713" fill="#000" font-family="sans-serif" font-size="14" lengthAdjust="spacing" textLength="67">messages</text><text x="59.45" y="547.781" fill="#000" font-family="sans-serif" font-size="14" lengthAdjust="spacing" textLength="35">block</text><line style="stroke:#181818;stroke-width:1;stroke-dasharray:1,2" x1="54.45" x2="85.95" y1="485.145" y2="485.145"/><text x="85.95" y="490.077" fill="#000" font-family="sans-serif" font-size="14" lengthAdjust="spacing" textLength="59">relations</text><line style="stroke:#181818;stroke-width:1;stroke-dasharray:1,2" x1="144.95" x2="176.45" y1="485.145" y2="485.145"/></g><g id="elem_Message"><rect id="Message" width="92" height="158.407" x="7.45" y="635.5" fill="#F1F1F1" codeLine="28" rx="2.5" ry="2.5" style="stroke:#181818;stroke-width:.5"/><ellipse cx="22.45" cy="651.5" fill="#ADD1B2" rx="11" ry="11" style="stroke:#181818;stroke-width:1"/><path fill="#000" d="M18.8094,658 L18.8094,645.8594 L26.4656,645.8594 L26.4656,647.9844 L21.1844,647.9844 L21.1844,650.6406 L26.2,650.6406 L26.2,652.7656 L21.1844,652.7656 L21.1844,655.875 L26.4656,655.875 L26.4656,658 L18.8094,658 Z"/><text x="36.45" y="656.932" fill="#000" font-family="sans-serif" font-size="14" lengthAdjust="spacing" textLength="60">Message</text><line style="stroke:#181818;stroke-width:.5" x1="8.45" x2="98.45" y1="667.5" y2="667.5"/><ellipse cx="18.45" cy="682.534" fill="none" rx="3" ry="3" style="stroke:#038048;stroke-width:1"/><text x="27.45" y="686.466" fill="#000" font-family="sans-serif" font-size="14" lengthAdjust="spacing" textLength="13">id</text><ellipse cx="18.45" cy="701.602" fill="none" rx="3" ry="3" style="stroke:#038048;stroke-width:1"/><text x="27.45" y="705.534" fill="#000" font-family="sans-serif" font-size="14" lengthAdjust="spacing" textLength="49">typeUrl</text><text x="27.45" y="724.602" fill="#000" font-family="sans-serif" font-size="14" lengthAdjust="spacing" textLength="28">json</text><text x="13.45" y="766.738" fill="#000" font-family="sans-serif" font-size="14" lengthAdjust="spacing" textLength="76">transaction</text><text x="13.45" y="785.806" fill="#000" font-family="sans-serif" font-size="14" lengthAdjust="spacing" textLength="35">block</text><line style="stroke:#181818;stroke-width:1;stroke-dasharray:1,2" x1="8.45" x2="23.95" y1="742.238" y2="742.238"/><text x="23.95" y="747.17" fill="#000" font-family="sans-serif" font-size="14" lengthAdjust="spacing" textLength="59">relations</text><line style="stroke:#181818;stroke-width:1;stroke-dasharray:1,2" x1="82.95" x2="98.45" y1="742.238" y2="742.238"/></g><g id="elem_Event"><rect id="Event" width="88" height="196.543" x="186.45" y="616" fill="#F1F1F1" codeLine="37" rx="2.5" ry="2.5" style="stroke:#181818;stroke-width:.5"/><ellipse cx="210" cy="632" fill="#ADD1B2" rx="11" ry="11" style="stroke:#181818;stroke-width:1"/><path fill="#000" d="M206.3594,638.5 L206.3594,626.3594 L214.0156,626.3594 L214.0156,628.4844 L208.7344,628.4844 L208.7344,631.1406 L213.75,631.1406 L213.75,633.2656 L208.7344,633.2656 L208.7344,636.375 L214.0156,636.375 L214.0156,638.5 L206.3594,638.5 Z"/><text x="225.9" y="637.432" fill="#000" font-family="sans-serif" font-size="14" lengthAdjust="spacing" textLength="37">Event</text><line style="stroke:#181818;stroke-width:.5" x1="187.45" x2="273.45" y1="648" y2="648"/><ellipse cx="197.45" cy="663.034" fill="none" rx="3" ry="3" style="stroke:#038048;stroke-width:1"/><text x="206.45" y="666.966" fill="#000" font-family="sans-serif" font-size="14" lengthAdjust="spacing" textLength="13">id</text><ellipse cx="197.45" cy="682.102" fill="none" rx="3" ry="3" style="stroke:#038048;stroke-width:1"/><text x="206.45" y="686.034" fill="#000" font-family="sans-serif" font-size="14" lengthAdjust="spacing" textLength="29">type</text><text x="206.45" y="705.102" fill="#000" font-family="sans-serif" font-size="14" lengthAdjust="spacing" textLength="21">log</text><text x="192.45" y="747.238" fill="#000" font-family="sans-serif" font-size="14" lengthAdjust="spacing" textLength="66">attributes</text><text x="192.45" y="766.306" fill="#000" font-family="sans-serif" font-size="14" lengthAdjust="spacing" textLength="76">transaction</text><text x="192.45" y="785.373" fill="#000" font-family="sans-serif" font-size="14" lengthAdjust="spacing" textLength="35">block</text><line style="stroke:#181818;stroke-width:1;stroke-dasharray:1,2" x1="187.45" x2="200.95" y1="722.738" y2="722.738"/><text x="200.95" y="727.67" fill="#000" font-family="sans-serif" font-size="14" lengthAdjust="spacing" textLength="59">relations</text><line style="stroke:#181818;stroke-width:1;stroke-dasharray:1,2" x1="259.95" x2="273.45" y1="722.738" y2="722.738"/></g><g id="elem_EventAttribute"><rect id="EventAttribute" width="129" height="139.34" x="283.95" y="340.5" fill="#F1F1F1" codeLine="48" rx="2.5" ry="2.5" style="stroke:#181818;stroke-width:.5"/><ellipse cx="298.95" cy="356.5" fill="#ADD1B2" rx="11" ry="11" style="stroke:#181818;stroke-width:1"/><path fill="#000" d="M295.3094,363 L295.3094,350.8594 L302.9656,350.8594 L302.9656,352.9844 L297.6844,352.9844 L297.6844,355.6406 L302.7,355.6406 L302.7,357.7656 L297.6844,357.7656 L297.6844,360.875 L302.9656,360.875 L302.9656,363 L295.3094,363 Z"/><text x="312.95" y="361.932" fill="#000" font-family="sans-serif" font-size="14" lengthAdjust="spacing" textLength="97">EventAttribute</text><line style="stroke:#181818;stroke-width:.5" x1="284.95" x2="411.95" y1="372.5" y2="372.5"/><ellipse cx="294.95" cy="387.534" fill="none" rx="3" ry="3" style="stroke:#038048;stroke-width:1"/><text x="303.95" y="391.466" fill="#000" font-family="sans-serif" font-size="14" lengthAdjust="spacing" textLength="13">id</text><ellipse cx="294.95" cy="406.602" fill="none" rx="3" ry="3" style="stroke:#038048;stroke-width:1"/><text x="303.95" y="410.534" fill="#000" font-family="sans-serif" font-size="14" lengthAdjust="spacing" textLength="22">key</text><ellipse cx="294.95" cy="425.67" fill="none" rx="3" ry="3" style="stroke:#038048;stroke-width:1"/><text x="303.95" y="429.602" fill="#000" font-family="sans-serif" font-size="14" lengthAdjust="spacing" textLength="36">value</text><text x="289.95" y="471.738" fill="#000" font-family="sans-serif" font-size="14" lengthAdjust="spacing" textLength="37">event</text><line style="stroke:#181818;stroke-width:1;stroke-dasharray:1,2" x1="284.95" x2="318.95" y1="447.238" y2="447.238"/><text x="318.95" y="452.17" fill="#000" font-family="sans-serif" font-size="14" lengthAdjust="spacing" textLength="59">relations</text><line style="stroke:#181818;stroke-width:1;stroke-dasharray:1,2" x1="377.95" x2="411.95" y1="447.238" y2="447.238"/></g><g id="link_Block_Transaction"><path id="Block-Transaction" fill="none" d="M115.45,213.74 C115.45,226.9 115.45,240.54 115.45,254.22" codeLine="57" style="stroke:#181818;stroke-width:1"/><line style="stroke:#181818;stroke-width:1" x1="115.45" x2="121.45" y1="254.18" y2="262.18"/><line style="stroke:#181818;stroke-width:1" x1="115.45" x2="109.45" y1="254.18" y2="262.18"/><line style="stroke:#181818;stroke-width:1" x1="115.45" x2="115.45" y1="254.18" y2="262.18"/><ellipse cx="115.45" cy="248.18" fill="none" rx="4" ry="4" style="stroke:#181818;stroke-width:1"/><line style="stroke:#181818;stroke-width:1" x1="111.45" x2="119.45" y1="209.81" y2="209.81"/><line style="stroke:#181818;stroke-width:1" x1="111.45" x2="119.45" y1="212.81" y2="212.81"/><line style="stroke:#181818;stroke-width:1" x1="115.45" x2="115.45" y1="213.81" y2="205.81"/></g><g id="link_Block_Message"><path id="Block-Message" fill="none" d="M61.84,194.17 C50.96,216.2 41.12,240.33 35.45,264 C6,387 21.01,534.25 36.02,625.86" codeLine="58" style="stroke:#181818;stroke-width:1"/><line style="stroke:#181818;stroke-width:1" x1="35.997" x2="43.229" y1="625.708" y2="632.615"/><line style="stroke:#181818;stroke-width:1" x1="35.997" x2="31.391" y1="625.708" y2="634.585"/><line style="stroke:#181818;stroke-width:1" x1="35.997" x2="37.31" y1="625.708" y2="633.6"/><ellipse cx="35.013" cy="619.79" fill="none" rx="4" ry="4" style="stroke:#181818;stroke-width:1"/><line style="stroke:#181818;stroke-width:1" x1="59.993" x2="67.129" y1="188.939" y2="192.556"/><line style="stroke:#181818;stroke-width:1" x1="58.637" x2="65.772" y1="191.614" y2="195.232"/><line style="stroke:#181818;stroke-width:1" x1="61.752" x2="65.37" y1="194.315" y2="187.18"/></g><g id="link_Block_Event"><path id="Block-Event" fill="none" d="M169.12,198.84 C179.12,219.68 188.34,242.12 194.45,264 C226.27,377.9 233.07,513.9 233.3,606.25" codeLine="59" style="stroke:#181818;stroke-width:1"/><line style="stroke:#181818;stroke-width:1" x1="233.286" x2="239.3" y1="606.09" y2="614.079"/><line style="stroke:#181818;stroke-width:1" x1="233.286" x2="227.3" y1="606.09" y2="614.101"/><line style="stroke:#181818;stroke-width:1" x1="233.286" x2="233.3" y1="606.09" y2="614.09"/><ellipse cx="233.275" cy="600.09" fill="none" rx="4" ry="4" style="stroke:#181818;stroke-width:1"/><line style="stroke:#181818;stroke-width:1" x1="163.774" x2="170.961" y1="197.041" y2="193.526"/><line style="stroke:#181818;stroke-width:1" x1="165.092" x2="172.279" y1="199.736" y2="196.221"/><line style="stroke:#181818;stroke-width:1" x1="169.125" x2="165.61" y1="198.877" y2="191.69"/></g><g id="link_Transaction_Event"><path id="Transaction-Event" fill="none" d="M173.99,564.99 C179.39,579.19 184.77,593.35 189.96,606.99" codeLine="61" style="stroke:#181818;stroke-width:1"/><line style="stroke:#181818;stroke-width:1" x1="189.95" x2="198.399" y1="606.971" y2="612.32"/><line style="stroke:#181818;stroke-width:1" x1="189.95" x2="187.181" y1="606.971" y2="616.58"/><line style="stroke:#181818;stroke-width:1" x1="189.95" x2="192.79" y1="606.971" y2="614.45"/><line style="stroke:#181818;stroke-width:1" x1="192.979" x2="185.5" y1="603.681" y2="606.522"/><line style="stroke:#181818;stroke-width:1" x1="168.981" x2="176.459" y1="563.069" y2="560.229"/><line style="stroke:#181818;stroke-width:1" x1="170.046" x2="177.525" y1="565.874" y2="563.034"/><line style="stroke:#181818;stroke-width:1" x1="174.14" x2="171.3" y1="565.389" y2="557.91"/></g><g id="link_Transaction_Message"><path id="Transaction-Message" fill="none" d="M83.74,565.7 C79.51,586.36 75.29,606.92 71.41,625.87" codeLine="62" style="stroke:#181818;stroke-width:1"/><line style="stroke:#181818;stroke-width:1" x1="71.453" x2="75.717" y1="625.704" y2="634.75"/><line style="stroke:#181818;stroke-width:1" x1="71.453" x2="63.963" y1="625.704" y2="632.33"/><line style="stroke:#181818;stroke-width:1" x1="71.453" x2="69.84" y1="625.704" y2="633.54"/><line style="stroke:#181818;stroke-width:1" x1="75.774" x2="67.938" y1="624.552" y2="622.939"/><line style="stroke:#181818;stroke-width:1" x1="80.61" x2="88.448" y1="561.088" y2="562.69"/><line style="stroke:#181818;stroke-width:1" x1="80.009" x2="87.847" y1="564.027" y2="565.629"/><line style="stroke:#181818;stroke-width:1" x1="83.728" x2="85.33" y1="565.808" y2="557.97"/></g><g id="link_EventAttribute_Event"><path id="EventAttribute-Event" fill="none" d="M318.31,488.28 C304.26,524.29 287.31,567.73 272.07,606.81" codeLine="64" style="stroke:#181818;stroke-width:1"/><line style="stroke:#181818;stroke-width:1" x1="274.372" x2="266.92" y1="611.92" y2="609.008"/><line style="stroke:#181818;stroke-width:1" x1="275.464" x2="268.012" y1="609.126" y2="606.214"/><line style="stroke:#181818;stroke-width:1" x1="272.102" x2="269.19" y1="606.739" y2="614.19"/><line style="stroke:#181818;stroke-width:1" x1="318.22" x2="315.528" y1="488.506" y2="478.875"/><line style="stroke:#181818;stroke-width:1" x1="318.22" x2="326.712" y1="488.506" y2="483.225"/><line style="stroke:#181818;stroke-width:1" x1="318.22" x2="321.12" y1="488.506" y2="481.05"/><line style="stroke:#181818;stroke-width:1" x1="313.767" x2="321.224" y1="488.92" y2="491.82"/></g></g></svg>