<svg xmlns="http://www.w3.org/2000/svg" xmlns:xlink="http://www.w3.org/1999/xlink" width="502" height="1040" contentStyleType="text/css" preserveAspectRatio="none" style="width:502px;height:1040px;background:#fff" version="1.1" viewBox="0 0 502 1040" zoomAndPan="magnify"><g><g id="elem_Block"><rect id="Block" width="98" height="196.543" x="191.98" y="7" fill="#F1F1F1" codeLine="1" rx="2.5" ry="2.5" style="stroke:#181818;stroke-width:.5"/><ellipse cx="220.93" cy="23" fill="#ADD1B2" rx="11" ry="11" style="stroke:#181818;stroke-width:1"/><path fill="#000" d="M217.2894,29.5 L217.2894,17.3594 L224.9456,17.3594 L224.9456,19.4844 L219.6644,19.4844 L219.6644,22.1406 L224.68,22.1406 L224.68,24.2656 L219.6644,24.2656 L219.6644,27.375 L224.9456,27.375 L224.9456,29.5 L217.2894,29.5 Z"/><text x="238.03" y="28.432" fill="#000" font-family="sans-serif" font-size="14" lengthAdjust="spacing" textLength="35">Block</text><line style="stroke:#181818;stroke-width:.5" x1="192.98" x2="288.98" y1="39" y2="39"/><ellipse cx="202.98" cy="54.034" fill="none" rx="3" ry="3" style="stroke:#038048;stroke-width:1"/><text x="211.98" y="57.966" fill="#000" font-family="sans-serif" font-size="14" lengthAdjust="spacing" textLength="13">id</text><ellipse cx="202.98" cy="73.102" fill="none" rx="3" ry="3" style="stroke:#038048;stroke-width:1"/><text x="211.98" y="77.034" fill="#000" font-family="sans-serif" font-size="14" lengthAdjust="spacing" textLength="51">chainId</text><ellipse cx="202.98" cy="92.17" fill="none" rx="3" ry="3" style="stroke:#038048;stroke-width:1"/><text x="211.98" y="96.102" fill="#000" font-family="sans-serif" font-size="14" lengthAdjust="spacing" textLength="44">height</text><text x="211.98" y="115.17" fill="#000" font-family="sans-serif" font-size="14" lengthAdjust="spacing" textLength="72">timestamp</text><text x="197.98" y="157.305" fill="#000" font-family="sans-serif" font-size="14" lengthAdjust="spacing" textLength="83">transactions</text><text x="197.98" y="176.373" fill="#000" font-family="sans-serif" font-size="14" lengthAdjust="spacing" textLength="67">messages</text><text x="197.98" y="195.441" fill="#000" font-family="sans-serif" font-size="14" lengthAdjust="spacing" textLength="44">events</text><line style="stroke:#181818;stroke-width:1;stroke-dasharray:1,2" x1="192.98" x2="211.48" y1="132.806" y2="132.806"/><text x="211.48" y="137.738" fill="#000" font-family="sans-serif" font-size="14" lengthAdjust="spacing" textLength="59">relations</text><line style="stroke:#181818;stroke-width:1;stroke-dasharray:1,2" x1="270.48" x2="288.98" y1="132.806" y2="132.806"/></g><g id="elem_Transaction"><rect id="Transaction" width="124" height="291.883" x="178.98" y="271" fill="#F1F1F1" codeLine="12" rx="2.5" ry="2.5" style="stroke:#181818;stroke-width:.5"/><ellipse cx="199.83" cy="287" fill="#ADD1B2" rx="11" ry="11" style="stroke:#181818;stroke-width:1"/><path fill="#000" d="M196.1894,293.5 L196.1894,281.3594 L203.8456,281.3594 L203.8456,283.4844 L198.5644,283.4844 L198.5644,286.1406 L203.58,286.1406 L203.58,288.2656 L198.5644,288.2656 L198.5644,291.375 L203.8456,291.375 L203.8456,293.5 L196.1894,293.5 Z"/><text x="215.13" y="292.432" fill="#000" font-family="sans-serif" font-size="14" lengthAdjust="spacing" textLength="79">Transaction</text><line style="stroke:#181818;stroke-width:.5" x1="179.98" x2="301.98" y1="303" y2="303"/><ellipse cx="189.98" cy="318.034" fill="none" rx="3" ry="3" style="stroke:#038048;stroke-width:1"/><text x="198.98" y="321.966" fill="#000" font-family="sans-serif" font-size="14" lengthAdjust="spacing" textLength="13">id</text><text x="198.98" y="341.034" fill="#000" font-family="sans-serif" font-size="14" lengthAdjust="spacing" textLength="58">gasUsed</text><text x="198.98" y="360.102" fill="#000" font-family="sans-serif" font-size="14" lengthAdjust="spacing" textLength="76">gasWanted</text><text x="198.98" y="379.17" fill="#000" font-family="sans-serif" font-size="14" lengthAdjust="spacing" textLength="28">fees</text><text x="198.98" y="398.238" fill="#000" font-family="sans-serif" font-size="14" lengthAdjust="spacing" textLength="42">memo</text><text x="198.98" y="417.305" fill="#000" font-family="sans-serif" font-size="14" lengthAdjust="spacing" textLength="41">status</text><text x="198.98" y="436.373" fill="#000" font-family="sans-serif" font-size="14" lengthAdjust="spacing" textLength="21">log</text><ellipse cx="189.98" cy="451.509" fill="none" rx="3" ry="3" style="stroke:#038048;stroke-width:1"/><text x="198.98" y="455.441" fill="#000" font-family="sans-serif" font-size="14" lengthAdjust="spacing" textLength="97">timeoutHeight</text><ellipse cx="189.98" cy="470.577" fill="none" rx="3" ry="3" style="stroke:#038048;stroke-width:1"/><text x="198.98" y="474.509" fill="#000" font-family="sans-serif" font-size="14" lengthAdjust="spacing" textLength="98">signerAddress</text><text x="184.98" y="516.645" fill="#000" font-family="sans-serif" font-size="14" lengthAdjust="spacing" textLength="44">events</text><text x="184.98" y="535.713" fill="#000" font-family="sans-serif" font-size="14" lengthAdjust="spacing" textLength="67">messages</text><text x="184.98" y="554.781" fill="#000" font-family="sans-serif" font-size="14" lengthAdjust="spacing" textLength="35">block</text><line style="stroke:#181818;stroke-width:1;stroke-dasharray:1,2" x1="179.98" x2="211.48" y1="492.145" y2="492.145"/><text x="211.48" y="497.077" fill="#000" font-family="sans-serif" font-size="14" lengthAdjust="spacing" textLength="59">relations</text><line style="stroke:#181818;stroke-width:1;stroke-dasharray:1,2" x1="270.48" x2="301.98" y1="492.145" y2="492.145"/></g><g id="elem_Message"><rect id="Message" width="92" height="158.407" x="84.98" y="649" fill="#F1F1F1" codeLine="28" rx="2.5" ry="2.5" style="stroke:#181818;stroke-width:.5"/><ellipse cx="99.98" cy="665" fill="#ADD1B2" rx="11" ry="11" style="stroke:#181818;stroke-width:1"/><path fill="#000" d="M96.3394,671.5 L96.3394,659.3594 L103.9956,659.3594 L103.9956,661.4844 L98.7144,661.4844 L98.7144,664.1406 L103.73,664.1406 L103.73,666.2656 L98.7144,666.2656 L98.7144,669.375 L103.9956,669.375 L103.9956,671.5 L96.3394,671.5 Z"/><text x="113.98" y="670.432" fill="#000" font-family="sans-serif" font-size="14" lengthAdjust="spacing" textLength="60">Message</text><line style="stroke:#181818;stroke-width:.5" x1="85.98" x2="175.98" y1="681" y2="681"/><ellipse cx="95.98" cy="696.034" fill="none" rx="3" ry="3" style="stroke:#038048;stroke-width:1"/><text x="104.98" y="699.966" fill="#000" font-family="sans-serif" font-size="14" lengthAdjust="spacing" textLength="13">id</text><ellipse cx="95.98" cy="715.102" fill="none" rx="3" ry="3" style="stroke:#038048;stroke-width:1"/><text x="104.98" y="719.034" fill="#000" font-family="sans-serif" font-size="14" lengthAdjust="spacing" textLength="49">typeUrl</text><text x="104.98" y="738.102" fill="#000" font-family="sans-serif" font-size="14" lengthAdjust="spacing" textLength="28">json</text><text x="90.98" y="780.238" fill="#000" font-family="sans-serif" font-size="14" lengthAdjust="spacing" textLength="76">transaction</text><text x="90.98" y="799.306" fill="#000" font-family="sans-serif" font-size="14" lengthAdjust="spacing" textLength="35">block</text><line style="stroke:#181818;stroke-width:1;stroke-dasharray:1,2" x1="85.98" x2="101.48" y1="755.738" y2="755.738"/><text x="101.48" y="760.67" fill="#000" font-family="sans-serif" font-size="14" lengthAdjust="spacing" textLength="59">relations</text><line style="stroke:#181818;stroke-width:1;stroke-dasharray:1,2" x1="160.48" x2="175.98" y1="755.738" y2="755.738"/></g><g id="elem_Event"><rect id="Event" width="88" height="196.543" x="288.98" y="630" fill="#F1F1F1" codeLine="37" rx="2.5" ry="2.5" style="stroke:#181818;stroke-width:.5"/><ellipse cx="312.53" cy="646" fill="#ADD1B2" rx="11" ry="11" style="stroke:#181818;stroke-width:1"/><path fill="#000" d="M308.8894,652.5 L308.8894,640.3594 L316.5456,640.3594 L316.5456,642.4844 L311.2644,642.4844 L311.2644,645.1406 L316.28,645.1406 L316.28,647.2656 L311.2644,647.2656 L311.2644,650.375 L316.5456,650.375 L316.5456,652.5 L308.8894,652.5 Z"/><text x="328.43" y="651.432" fill="#000" font-family="sans-serif" font-size="14" lengthAdjust="spacing" textLength="37">Event</text><line style="stroke:#181818;stroke-width:.5" x1="289.98" x2="375.98" y1="662" y2="662"/><ellipse cx="299.98" cy="677.034" fill="none" rx="3" ry="3" style="stroke:#038048;stroke-width:1"/><text x="308.98" y="680.966" fill="#000" font-family="sans-serif" font-size="14" lengthAdjust="spacing" textLength="13">id</text><ellipse cx="299.98" cy="696.102" fill="none" rx="3" ry="3" style="stroke:#038048;stroke-width:1"/><text x="308.98" y="700.034" fill="#000" font-family="sans-serif" font-size="14" lengthAdjust="spacing" textLength="29">type</text><text x="308.98" y="719.102" fill="#000" font-family="sans-serif" font-size="14" lengthAdjust="spacing" textLength="21">log</text><text x="294.98" y="761.238" fill="#000" font-family="sans-serif" font-size="14" lengthAdjust="spacing" textLength="66">attributes</text><text x="294.98" y="780.306" fill="#000" font-family="sans-serif" font-size="14" lengthAdjust="spacing" textLength="76">transaction</text><text x="294.98" y="799.373" fill="#000" font-family="sans-serif" font-size="14" lengthAdjust="spacing" textLength="35">block</text><line style="stroke:#181818;stroke-width:1;stroke-dasharray:1,2" x1="289.98" x2="303.48" y1="736.738" y2="736.738"/><text x="303.48" y="741.67" fill="#000" font-family="sans-serif" font-size="14" lengthAdjust="spacing" textLength="59">relations</text><line style="stroke:#181818;stroke-width:1;stroke-dasharray:1,2" x1="362.48" x2="375.98" y1="736.738" y2="736.738"/></g><g id="elem_EventAttribute"><rect id="EventAttribute" width="129" height="139.34" x="267.48" y="894" fill="#F1F1F1" codeLine="48" rx="2.5" ry="2.5" style="stroke:#181818;stroke-width:.5"/><ellipse cx="282.48" cy="910" fill="#ADD1B2" rx="11" ry="11" style="stroke:#181818;stroke-width:1"/><path fill="#000" d="M278.8394,916.5 L278.8394,904.3594 L286.4956,904.3594 L286.4956,906.4844 L281.2144,906.4844 L281.2144,909.1406 L286.23,909.1406 L286.23,911.2656 L281.2144,911.2656 L281.2144,914.375 L286.4956,914.375 L286.4956,916.5 L278.8394,916.5 Z"/><text x="296.48" y="915.432" fill="#000" font-family="sans-serif" font-size="14" lengthAdjust="spacing" textLength="97">EventAttribute</text><line style="stroke:#181818;stroke-width:.5" x1="268.48" x2="395.48" y1="926" y2="926"/><ellipse cx="278.48" cy="941.034" fill="none" rx="3" ry="3" style="stroke:#038048;stroke-width:1"/><text x="287.48" y="944.966" fill="#000" font-family="sans-serif" font-size="14" lengthAdjust="spacing" textLength="13">id</text><ellipse cx="278.48" cy="960.102" fill="none" rx="3" ry="3" style="stroke:#038048;stroke-width:1"/><text x="287.48" y="964.034" fill="#000" font-family="sans-serif" font-size="14" lengthAdjust="spacing" textLength="22">key</text><ellipse cx="278.48" cy="979.17" fill="none" rx="3" ry="3" style="stroke:#038048;stroke-width:1"/><text x="287.48" y="983.102" fill="#000" font-family="sans-serif" font-size="14" lengthAdjust="spacing" textLength="36">value</text><text x="273.48" y="1025.238" fill="#000" font-family="sans-serif" font-size="14" lengthAdjust="spacing" textLength="37">event</text><line style="stroke:#181818;stroke-width:1;stroke-dasharray:1,2" x1="268.48" x2="302.48" y1="1000.738" y2="1000.738"/><text x="302.48" y="1005.67" fill="#000" font-family="sans-serif" font-size="14" lengthAdjust="spacing" textLength="59">relations</text><line style="stroke:#181818;stroke-width:1;stroke-dasharray:1,2" x1="361.48" x2="395.48" y1="1000.738" y2="1000.738"/></g><g id="link_Block_Transaction"><path id="Block-to-Transaction" fill="none" d="M290.98,152 C347.91,152 339.05,212.1 314.27,274.89" codeLine="57" style="stroke:#181818;stroke-width:1;stroke-dasharray:7,7"/><line style="stroke:#181818;stroke-width:1" x1="314.411" x2="316.972" y1="274.544" y2="284.211"/><line style="stroke:#181818;stroke-width:1" x1="314.411" x2="305.848" y1="274.544" y2="279.709"/><line style="stroke:#181818;stroke-width:1" x1="314.411" x2="311.41" y1="274.544" y2="281.96"/><ellipse cx="316.661" cy="268.982" fill="none" rx="4" ry="4" style="stroke:#181818;stroke-width:1"/></g><g id="link_Transaction_Block"><path id="Transaction-to-Block" fill="none" d="M303.98,549.5 C366.76,549.5 314.56,328.7 302.98,267 C299.72,249.64 294.67,231.74 288.83,214.46" codeLine="63" style="stroke:#181818;stroke-width:1;stroke-dasharray:7,7"/><line style="stroke:#181818;stroke-width:1" x1="284.116" x2="291.677" y1="213.087" y2="210.474"/><line style="stroke:#181818;stroke-width:1" x1="285.096" x2="292.657" y1="215.923" y2="213.31"/><line style="stroke:#181818;stroke-width:1" x1="289.203" x2="286.59" y1="215.561" y2="208"/></g><g id="link_Block_Message"><path id="Block-to-Message" fill="none" d="M190.98,171 C6,171 63.12,478.96 104.44,636.49" codeLine="58" style="stroke:#181818;stroke-width:1;stroke-dasharray:7,7"/><line style="stroke:#181818;stroke-width:1" x1="104.339" x2="112.181" y1="636.065" y2="642.269"/><line style="stroke:#181818;stroke-width:1" x1="104.339" x2="100.579" y1="636.065" y2="645.331"/><line style="stroke:#181818;stroke-width:1" x1="104.339" x2="106.38" y1="636.065" y2="643.8"/><ellipse cx="102.808" cy="630.263" fill="none" rx="4" ry="4" style="stroke:#181818;stroke-width:1"/></g><g id="link_Message_Block"><path id="Message-to-Block" fill="none" d="M177.98,794 C244.2,794 186.93,710.47 176.98,645 C171.46,608.72 158.37,602.3 152.98,566 C133.45,434.55 120.09,395.75 152.98,267 C158.93,243.71 169.02,220.16 180.29,198.52" codeLine="66" style="stroke:#181818;stroke-width:1;stroke-dasharray:7,7"/><line style="stroke:#181818;stroke-width:1" x1="178.031" x2="185.096" y1="194.256" y2="198.009"/><line style="stroke:#181818;stroke-width:1" x1="176.624" x2="183.689" y1="196.906" y2="200.658"/><line style="stroke:#181818;stroke-width:1" x1="179.687" x2="183.44" y1="199.665" y2="192.6"/></g><g id="link_Block_Event"><path id="Block-to-Event" fill="none" d="M290.98,190 C375.85,190 361.48,459.96 345.94,617.06" codeLine="59" style="stroke:#181818;stroke-width:1;stroke-dasharray:7,7"/><line style="stroke:#181818;stroke-width:1" x1="345.96" x2="351.13" y1="616.84" y2="625.4"/><line style="stroke:#181818;stroke-width:1" x1="345.96" x2="339.19" y1="616.84" y2="624.2"/><line style="stroke:#181818;stroke-width:1" x1="345.96" x2="345.16" y1="616.84" y2="624.8"/><ellipse cx="346.56" cy="610.87" fill="none" rx="4" ry="4" style="stroke:#181818;stroke-width:1"/></g><g id="link_Event_Block"><path id="Event-to-Block" fill="none" d="M377.98,794 C495.09,794 418.41,376.91 377.98,267 C362.89,226 332.22,188.32 303.71,159.74" codeLine="70" style="stroke:#181818;stroke-width:1;stroke-dasharray:7,7"/><line style="stroke:#181818;stroke-width:1" x1="298.781" x2="304.397" y1="160.497" y2="154.799"/><line style="stroke:#181818;stroke-width:1" x1="300.917" x2="306.533" y1="162.603" y2="156.905"/><line style="stroke:#181818;stroke-width:1" x1="304.438" x2="298.74" y1="160.456" y2="154.84"/></g><g id="link_Transaction_Event"><path id="Transaction-to-Event" fill="none" d="M303.98,511.5 C327.8,511.5 335.18,563.87 336.54,616.98" codeLine="61" style="stroke:#181818;stroke-width:1;stroke-dasharray:7,7"/><line style="stroke:#181818;stroke-width:1" x1="336.533" x2="342.689" y1="616.682" y2="624.562"/><line style="stroke:#181818;stroke-width:1" x1="336.533" x2="330.691" y1="616.682" y2="624.798"/><line style="stroke:#181818;stroke-width:1" x1="336.533" x2="336.69" y1="616.682" y2="624.68"/><line style="stroke:#181818;stroke-width:1" x1="340.493" x2="332.494" y1="614.603" y2="614.76"/></g><g id="link_Event_Transaction"><path id="Event-to-Transaction" fill="none" d="M287.98,775 C201.22,775 194.62,670.23 206.82,574.13" codeLine="69" style="stroke:#181818;stroke-width:1;stroke-dasharray:7,7"/><line style="stroke:#181818;stroke-width:1" x1="203.235" x2="211.164" y1="570.684" y2="571.745"/><line style="stroke:#181818;stroke-width:1" x1="202.837" x2="210.767" y1="573.658" y2="574.718"/><line style="stroke:#181818;stroke-width:1" x1="206.669" x2="207.73" y1="575.179" y2="567.25"/></g><g id="link_Transaction_Message"><path id="Transaction-to-Message" fill="none" d="M177.98,530.5 C154.44,530.5 142.67,584.49 136.79,635.87" codeLine="62" style="stroke:#181818;stroke-width:1;stroke-dasharray:7,7"/><line style="stroke:#181818;stroke-width:1" x1="136.807" x2="141.916" y1="635.626" y2="644.223"/><line style="stroke:#181818;stroke-width:1" x1="136.807" x2="129.984" y1="635.626" y2="642.937"/><line style="stroke:#181818;stroke-width:1" x1="136.807" x2="135.95" y1="635.626" y2="643.58"/><line style="stroke:#181818;stroke-width:1" x1="140.998" x2="133.044" y1="634.066" y2="633.209"/></g><g id="link_Message_Transaction"><path id="Message-to-Transaction" fill="none" d="M177.98,775 C221.65,775 236.5,670.23 240.94,574.13" codeLine="65" style="stroke:#181818;stroke-width:1;stroke-dasharray:7,7"/><line style="stroke:#181818;stroke-width:1" x1="237.062" x2="245.055" y1="571.085" y2="571.428"/><line style="stroke:#181818;stroke-width:1" x1="236.934" x2="244.927" y1="574.082" y2="574.425"/><line style="stroke:#181818;stroke-width:1" x1="240.887" x2="241.23" y1="575.253" y2="567.26"/></g><g id="link_Event_EventAttribute"><path id="Event-to-EventAttribute" fill="none" d="M287.98,756 C234.17,756 256.53,823.89 285.41,881.81" codeLine="68" style="stroke:#181818;stroke-width:1;stroke-dasharray:7,7"/><line style="stroke:#181818;stroke-width:1" x1="285.402" x2="294.372" y1="881.795" y2="886.217"/><line style="stroke:#181818;stroke-width:1" x1="285.402" x2="283.668" y1="881.795" y2="891.643"/><line style="stroke:#181818;stroke-width:1" x1="285.402" x2="289.02" y1="881.795" y2="888.93"/><line style="stroke:#181818;stroke-width:1" x1="288.065" x2="280.93" y1="878.202" y2="881.82"/></g><g id="link_EventAttribute_Event"><path id="EventAttribute-to-Event" fill="none" d="M397.98,1020.5 C480.73,1020.5 435.04,907.2 388.89,821.88" codeLine="72" style="stroke:#181818;stroke-width:1;stroke-dasharray:7,7"/><line style="stroke:#181818;stroke-width:1" x1="383.988" x2="391.008" y1="821.248" y2="817.412"/><line style="stroke:#181818;stroke-width:1" x1="385.427" x2="392.447" y1="823.881" y2="820.044"/><line style="stroke:#181818;stroke-width:1" x1="389.416" x2="385.58" y1="822.84" y2="815.82"/></g></g></svg>