<svg xmlns="http://www.w3.org/2000/svg" width="69" height="69" fill="none" viewBox="0 0 69 69"><path fill="#C9F8DC" d="M7.91555 14.2245L2.80859 6.55571L8.31218 2.89062L13.7684 11.0838C14.7657 10.8429 15.8061 10.712 16.8774 10.712C16.8865 10.712 16.8954 10.7126 16.9044 10.7126C17.9661 10.7147 18.9972 10.8457 19.986 11.0845L25.4427 2.89063L30.9463 6.55571L25.8393 14.2246C28.4434 16.6352 30.0751 20.0812 30.0751 23.9096C30.0751 23.9352 30.0733 23.9604 30.0732 23.986C30.0732 23.9905 30.0728 23.9949 30.0728 23.9995H3.68205C3.68182 23.9693 3.67976 23.9397 3.67976 23.9096C3.67976 20.0812 5.31152 16.6352 7.91555 14.2245Z"/><g filter="url(#filter0_bd_2689_930)"><path fill="url(#paint0_linear_2689_930)" d="M18.8906 18.7656V37.584H37.6678L45.1909 45.1071V37.584V18.7656H18.8906Z" shape-rendering="crispEdges"/><path stroke="url(#paint1_linear_2689_930)" stroke-width=".585" d="M37.8748 37.377L37.789 37.2913H37.6678H19.1833V19.0583H44.8982V37.584V44.4005L37.8748 37.377Z" shape-rendering="crispEdges"/></g><g filter="url(#filter1_b_2689_930)"><path fill="url(#paint2_linear_2689_930)" d="M3.15234 31.9577L3.15234 31.9577C3.15234 33.4125 4.33169 34.5918 5.78649 34.5918L27.3373 34.5918C28.7921 34.5918 29.9714 33.4125 29.9714 31.9577C29.9714 30.5029 28.7921 29.3235 27.3373 29.3235L5.78649 29.3235C4.33169 29.3235 3.15234 30.5029 3.15234 31.9577Z"/><path stroke="url(#paint3_linear_2689_930)" stroke-width=".585" d="M3.44503 31.9577L3.44503 31.9577C3.44503 30.6645 4.49334 29.6162 5.78649 29.6162L27.3373 29.6162C28.6304 29.6162 29.6788 30.6645 29.6788 31.9577C29.6788 33.2508 28.6304 34.2991 27.3373 34.2991L5.78649 34.2991C4.49333 34.2991 3.44503 33.2508 3.44503 31.9577Z"/></g><g filter="url(#filter2_b_2689_930)"><path fill="url(#paint4_linear_2689_930)" d="M3.15234 42.4733L3.15234 42.4733C3.15234 43.9281 4.33169 45.1074 5.78649 45.1074L21.8068 45.1074C23.2616 45.1074 24.441 43.9281 24.441 42.4733C24.441 41.0185 23.2616 39.8391 21.8068 39.8391L5.78649 39.8391C4.33169 39.8391 3.15234 41.0185 3.15234 42.4733Z"/><path stroke="url(#paint5_linear_2689_930)" stroke-width=".585" d="M3.44503 42.4733L3.44503 42.4733C3.44503 41.1801 4.49333 40.1318 5.78649 40.1318L21.8068 40.1318C23.1 40.1318 24.1483 41.1801 24.1483 42.4733C24.1483 43.7664 23.1 44.8147 21.8068 44.8147L5.78649 44.8147C4.49334 44.8147 3.44503 43.7664 3.44503 42.4733Z"/></g><defs><filter id="filter0_bd_2689_930" width="61.423" height="61.464" x="7.183" y="7.058" color-interpolation-filters="sRGB" filterUnits="userSpaceOnUse"><feFlood flood-opacity="0" result="BackgroundImageFix"/><feGaussianBlur in="BackgroundImageFix" stdDeviation="5.854"/><feComposite in2="SourceAlpha" operator="in" result="effect1_backgroundBlur_2689_930"/><feColorMatrix in="SourceAlpha" result="hardAlpha" type="matrix" values="0 0 0 0 0 0 0 0 0 0 0 0 0 0 0 0 0 0 127 0"/><feOffset dx="5.854" dy="5.854"/><feGaussianBlur stdDeviation="8.78"/><feComposite in2="hardAlpha" operator="out"/><feColorMatrix type="matrix" values="0 0 0 0 0.0196078 0 0 0 0 0.6 0 0 0 0 0.290196 0 0 0 0.3 0"/><feBlend in2="effect1_backgroundBlur_2689_930" mode="normal" result="effect2_dropShadow_2689_930"/><feBlend in="SourceGraphic" in2="effect2_dropShadow_2689_930" mode="normal" result="shape"/></filter><filter id="filter1_b_2689_930" width="31.503" height="9.95" x=".811" y="26.983" color-interpolation-filters="sRGB" filterUnits="userSpaceOnUse"><feFlood flood-opacity="0" result="BackgroundImageFix"/><feGaussianBlur in="BackgroundImageFix" stdDeviation="1.171"/><feComposite in2="SourceAlpha" operator="in" result="effect1_backgroundBlur_2689_930"/><feBlend in="SourceGraphic" in2="effect1_backgroundBlur_2689_930" mode="normal" result="shape"/></filter><filter id="filter2_b_2689_930" width="25.972" height="9.95" x=".811" y="37.498" color-interpolation-filters="sRGB" filterUnits="userSpaceOnUse"><feFlood flood-opacity="0" result="BackgroundImageFix"/><feGaussianBlur in="BackgroundImageFix" stdDeviation="1.171"/><feComposite in2="SourceAlpha" operator="in" result="effect1_backgroundBlur_2689_930"/><feBlend in="SourceGraphic" in2="effect1_backgroundBlur_2689_930" mode="normal" result="shape"/></filter><linearGradient id="paint0_linear_2689_930" x1="19.399" x2="47.383" y1="18.766" y2="47.849" gradientUnits="userSpaceOnUse"><stop offset=".182" stop-color="#2DE376" stop-opacity=".5"/><stop offset=".64" stop-color="#2DE376" stop-opacity=".9"/></linearGradient><linearGradient id="paint1_linear_2689_930" x1="18.891" x2="44.53" y1="15.7" y2="46.171" gradientUnits="userSpaceOnUse"><stop offset=".25" stop-color="#2DE376"/><stop offset=".471" stop-color="#2DE376" stop-opacity="0"/><stop offset=".817" stop-color="#35C168"/></linearGradient><linearGradient id="paint2_linear_2689_930" x1="49.92" x2="25.476" y1="30.891" y2="61.592" gradientUnits="userSpaceOnUse"><stop offset=".082" stop-color="#8566FF" stop-opacity=".3"/><stop offset=".424" stop-color="#5F38FB" stop-opacity=".5"/><stop offset=".762" stop-color="#5F38FB" stop-opacity=".7"/></linearGradient><linearGradient id="paint3_linear_2689_930" x1="61.89" x2="-14.092" y1="31.958" y2="48.984" gradientUnits="userSpaceOnUse"><stop offset=".137" stop-color="#AF9BFD"/><stop offset=".41" stop-color="#5F38FB" stop-opacity="0"/><stop offset=".835" stop-color="#5F38FB"/></linearGradient><linearGradient id="paint4_linear_2689_930" x1="40.276" x2="15.195" y1="41.407" y2="66.412" gradientUnits="userSpaceOnUse"><stop offset=".082" stop-color="#8566FF" stop-opacity=".3"/><stop offset=".424" stop-color="#5F38FB" stop-opacity=".5"/><stop offset=".762" stop-color="#5F38FB" stop-opacity=".7"/></linearGradient><linearGradient id="paint5_linear_2689_930" x1="49.777" x2="-11.622" y1="42.473" y2="53.394" gradientUnits="userSpaceOnUse"><stop offset=".137" stop-color="#AF9BFD"/><stop offset=".41" stop-color="#5F38FB" stop-opacity="0"/><stop offset=".835" stop-color="#5F38FB"/></linearGradient></defs></svg>