<svg xmlns="http://www.w3.org/2000/svg" width="46" height="46" fill="none" viewBox="0 0 46 46"><path fill="#C9F8DC" d="M16.2071 6.13273L6.13126 16.2086C4.5896 17.7502 4.5896 20.2498 6.13126 21.7914L16.2071 31.8673C17.7488 33.4089 20.2483 33.4089 21.7899 31.8673L31.8658 21.7914C33.4074 20.2498 33.4074 17.7502 31.8658 16.2086L21.7899 6.13273C20.2483 4.59108 17.7488 4.59108 16.2071 6.13273Z"/><g filter="url(#filter0_bd_2689_1980)"><path fill="url(#paint0_linear_2689_1980)" d="M18.9996 30.0343C25.1004 30.0343 30.046 25.0887 30.046 18.9879C30.046 12.8871 25.1004 7.94141 18.9996 7.94141C12.8988 7.94141 7.95312 12.8871 7.95312 18.9879C7.95312 25.0887 12.8988 30.0343 18.9996 30.0343Z" shape-rendering="crispEdges"/><path stroke="url(#paint1_linear_2689_1980)" stroke-width=".39" d="M29.8509 18.9879C29.8509 24.9809 24.9926 29.8392 18.9996 29.8392C13.0066 29.8392 8.14825 24.9809 8.14825 18.9879C8.14825 12.9948 13.0066 8.13653 18.9996 8.13653C24.9926 8.13653 29.8509 12.9948 29.8509 18.9879Z" shape-rendering="crispEdges"/></g><g filter="url(#filter1_b_2689_1980)"><path fill="url(#paint2_linear_2689_1980)" d="M19.0361 26.0664C15.1628 26.0664 12.0117 22.9151 12.0117 19.042C12.0117 15.1689 15.1628 12.0176 19.0361 12.0176C22.9094 12.0176 26.0605 15.1689 26.0605 19.042C26.0605 22.9151 22.9094 26.0664 19.0361 26.0664ZM19.0361 15.5298C17.0996 15.5298 15.5239 17.1052 15.5239 19.042C15.5239 20.9787 17.0996 22.5542 19.0361 22.5542C20.9727 22.5542 22.5483 20.9787 22.5483 19.042C22.5483 17.1052 20.9727 15.5298 19.0361 15.5298Z"/><path stroke="url(#paint3_linear_2689_1980)" stroke-width=".39" d="M19.0361 25.8712C15.2706 25.8712 12.2068 22.8073 12.2068 19.042C12.2068 15.2766 15.2706 12.2127 19.0361 12.2127C22.8016 12.2127 25.8654 15.2766 25.8654 19.042C25.8654 22.8073 22.8016 25.8712 19.0361 25.8712ZM19.0361 15.3347C16.9918 15.3347 15.3288 16.9975 15.3288 19.042C15.3288 21.0865 16.9918 22.7493 19.0361 22.7493C21.0804 22.7493 22.7434 21.0865 22.7434 19.042C22.7434 16.9975 21.0804 15.3347 19.0361 15.3347Z"/></g><defs><filter id="filter0_bd_2689_1980" width="45.508" height="45.508" x=".148" y=".137" color-interpolation-filters="sRGB" filterUnits="userSpaceOnUse"><feFlood flood-opacity="0" result="BackgroundImageFix"/><feGaussianBlur in="BackgroundImageFix" stdDeviation="3.902"/><feComposite in2="SourceAlpha" operator="in" result="effect1_backgroundBlur_2689_1980"/><feColorMatrix in="SourceAlpha" result="hardAlpha" type="matrix" values="0 0 0 0 0 0 0 0 0 0 0 0 0 0 0 0 0 0 127 0"/><feOffset dx="3.902" dy="3.902"/><feGaussianBlur stdDeviation="5.854"/><feComposite in2="hardAlpha" operator="out"/><feColorMatrix type="matrix" values="0 0 0 0 0.0196078 0 0 0 0 0.6 0 0 0 0 0.290196 0 0 0 0.3 0"/><feBlend in2="effect1_backgroundBlur_2689_1980" mode="normal" result="effect2_dropShadow_2689_1980"/><feBlend in="SourceGraphic" in2="effect2_dropShadow_2689_1980" mode="normal" result="shape"/></filter><filter id="filter1_b_2689_1980" width="17.169" height="17.171" x="10.451" y="10.457" color-interpolation-filters="sRGB" filterUnits="userSpaceOnUse"><feFlood flood-opacity="0" result="BackgroundImageFix"/><feGaussianBlur in="BackgroundImageFix" stdDeviation=".78"/><feComposite in2="SourceAlpha" operator="in" result="effect1_backgroundBlur_2689_1980"/><feBlend in="SourceGraphic" in2="effect1_backgroundBlur_2689_1980" mode="normal" result="shape"/></filter><linearGradient id="paint0_linear_2689_1980" x1="8.381" x2="31.849" y1="7.941" y2="32.371" gradientUnits="userSpaceOnUse"><stop offset=".182" stop-color="#2DE376" stop-opacity=".5"/><stop offset=".64" stop-color="#2DE376" stop-opacity=".9"/></linearGradient><linearGradient id="paint1_linear_2689_1980" x1="7.953" x2="29.451" y1="5.371" y2="30.959" gradientUnits="userSpaceOnUse"><stop offset=".25" stop-color="#2DE376"/><stop offset=".471" stop-color="#2DE376" stop-opacity="0"/><stop offset=".817" stop-color="#35C168"/></linearGradient><linearGradient id="paint2_linear_2689_1980" x1="21.88" x2="14.205" y1="36.516" y2="5.406" gradientUnits="userSpaceOnUse"><stop offset=".082" stop-color="#8566FF" stop-opacity=".3"/><stop offset=".424" stop-color="#5F38FB" stop-opacity=".5"/><stop offset=".762" stop-color="#5F38FB" stop-opacity=".7"/></linearGradient><linearGradient id="paint3_linear_2689_1980" x1="19.036" x2="17.2" y1="42.786" y2="1.067" gradientUnits="userSpaceOnUse"><stop offset=".137" stop-color="#AF9BFD"/><stop offset=".41" stop-color="#5F38FB" stop-opacity="0"/><stop offset=".835" stop-color="#5F38FB"/></linearGradient></defs></svg>