<svg xmlns="http://www.w3.org/2000/svg" width="32" height="32" fill="none" viewBox="0 0 32 32"><path fill="#DCE2EA" d="M21.2816 3.78992H7.2041V28.2101H21.2816V3.78992Z"/><g filter="url(#filter0_b_3575_3894)"><path fill="#5F38FB" d="M12.2927 7.24708C11.3229 7.24708 10.5366 8.03331 10.5366 9.00318C10.5366 9.97305 11.3229 10.7593 12.2927 10.7593L26.6599 10.7593C27.6298 10.7593 28.416 9.97305 28.416 9.00318C28.416 8.03331 27.6298 7.24708 26.6599 7.24708L12.2927 7.24708Z"/></g><g filter="url(#filter1_b_3575_3894)"><path fill="#5F38FB" d="M12.2927 14.2571C11.3229 14.2571 10.5366 15.0433 10.5366 16.0132C10.5366 16.9831 11.3229 17.7693 12.2927 17.7693H22.973C23.9428 17.7693 24.729 16.9831 24.729 16.0132C24.729 15.0433 23.9428 14.2571 22.973 14.2571H12.2927Z"/></g><g filter="url(#filter2_b_3575_3894)"><path fill="#5F38FB" d="M12.2927 21.2096C11.3229 21.2096 10.5366 21.9958 10.5366 22.9657C10.5366 23.9356 11.3229 24.7218 12.2927 24.7218H15.7331C16.703 24.7218 17.4892 23.9356 17.4892 22.9657C17.4892 21.9958 16.703 21.2096 15.7331 21.2096H12.2927Z"/></g><path fill="#B9C5D4" d="M7.20391 3.78992H3.58398V28.2101H7.20391V3.78992Z"/><defs><filter id="filter0_b_3575_3894" width="21.001" height="6.634" x="8.976" y="5.686" color-interpolation-filters="sRGB" filterUnits="userSpaceOnUse"><feFlood flood-opacity="0" result="BackgroundImageFix"/><feGaussianBlur in="BackgroundImageFix" stdDeviation=".78"/><feComposite in2="SourceAlpha" operator="in" result="effect1_backgroundBlur_3575_3894"/><feBlend in="SourceGraphic" in2="effect1_backgroundBlur_3575_3894" mode="normal" result="shape"/></filter><filter id="filter1_b_3575_3894" width="17.314" height="6.634" x="8.976" y="12.696" color-interpolation-filters="sRGB" filterUnits="userSpaceOnUse"><feFlood flood-opacity="0" result="BackgroundImageFix"/><feGaussianBlur in="BackgroundImageFix" stdDeviation=".78"/><feComposite in2="SourceAlpha" operator="in" result="effect1_backgroundBlur_3575_3894"/><feBlend in="SourceGraphic" in2="effect1_backgroundBlur_3575_3894" mode="normal" result="shape"/></filter><filter id="filter2_b_3575_3894" width="10.075" height="6.634" x="8.976" y="19.649" color-interpolation-filters="sRGB" filterUnits="userSpaceOnUse"><feFlood flood-opacity="0" result="BackgroundImageFix"/><feGaussianBlur in="BackgroundImageFix" stdDeviation=".78"/><feComposite in2="SourceAlpha" operator="in" result="effect1_backgroundBlur_3575_3894"/><feBlend in="SourceGraphic" in2="effect1_backgroundBlur_3575_3894" mode="normal" result="shape"/></filter></defs></svg>