<svg xmlns="http://www.w3.org/2000/svg" width="32" height="32" fill="none" viewBox="0 0 32 32"><path fill="#DCE2EA" d="M2.15186 7.17822V21.2557H26.572V7.17822L14.2758 14.2457L2.15186 7.17822Z"/><path fill="#B9C5D4" d="M2.15186 3.55829V7.17821L14.2758 14.2457L26.572 7.17821V3.55829H2.15186Z"/><g filter="url(#filter0_b_3575_3781)"><path fill="#5F38FB" fill-rule="evenodd" d="M22.8242 17.9051C20.8845 17.9051 19.312 19.4776 19.312 21.4173C19.312 23.3571 20.8845 24.9295 22.8242 24.9295C24.7639 24.9295 26.3364 23.3571 26.3364 21.4173C26.3364 19.4776 24.7639 17.9051 22.8242 17.9051ZM15.7998 21.4173C15.7998 17.5379 18.9447 14.3929 22.8242 14.3929C26.7037 14.3929 29.8486 17.5379 29.8486 21.4173C29.8486 25.2968 26.7037 28.4417 22.8242 28.4417C18.9447 28.4417 15.7998 25.2968 15.7998 21.4173Z" clip-rule="evenodd"/></g><defs><filter id="filter0_b_3575_3781" width="17.171" height="17.171" x="14.239" y="12.832" color-interpolation-filters="sRGB" filterUnits="userSpaceOnUse"><feFlood flood-opacity="0" result="BackgroundImageFix"/><feGaussianBlur in="BackgroundImageFix" stdDeviation=".78"/><feComposite in2="SourceAlpha" operator="in" result="effect1_backgroundBlur_3575_3781"/><feBlend in="SourceGraphic" in2="effect1_backgroundBlur_3575_3781" mode="normal" result="shape"/></filter></defs></svg>